<?xml version="1.0" encoding="UTF-8"?>
<svg version="1.1" xmlns="http://www.w3.org/2000/svg" width="4268" height="4268">
<path d="M0 0 C3.43861236 4.00652798 5.89004043 8.19287901 8.375 12.8125 C12.3428565 20.07018999 16.43894377 27.24104173 20.625 34.375 C25.80841116 43.21724778 30.9268799 52.0942188 36 61 C41.53951839 70.72143706 47.13375194 80.40895317 52.78344727 90.06689453 C58.93335892 100.58347855 65.01491822 111.13914401 71.09570312 121.69580078 C73.01506662 125.02614252 74.93682353 128.35509148 76.859375 131.68359375 C82.61613159 141.65143316 88.36365676 151.6239207 94.0625 161.625 C98.84756897 170.01932313 103.70413192 178.37039647 108.58056641 186.71191406 C114.7998955 197.35565245 120.95567917 208.03571631 127.10888672 218.71777344 C130.23680148 224.14659942 133.36858448 229.57319281 136.5 235 C137.75001879 237.16665583 139.00001878 239.3333225 140.25 241.5 C140.86875 242.5725 141.4875 243.645 142.125 244.75 C192.75000001 332.50000002 192.75000001 332.50000002 194.62524414 335.75048828 C195.87435518 337.91557071 197.12354129 340.08060982 198.37280273 342.24560547 C201.51202309 347.68615706 204.64990563 353.12747216 207.78515625 358.5703125 C213.89129035 369.16757247 220.01490158 379.75379394 226.1875 390.3125 C230.97029584 398.49524272 235.70553403 406.70312123 240.39794922 414.93798828 C246.25033415 425.20516145 252.16591151 435.43578715 258.07666016 445.66943359 C261.21958794 451.11190894 264.35967118 456.55602477 267.5 462 C268.7499859 464.1666748 269.99998592 466.33334146 271.25 468.5 C293.75 507.49999999 293.75 507.49999999 295.62524414 510.75048828 C296.87435518 512.91557071 298.12354129 515.08060982 299.37280273 517.24560547 C302.51202309 522.68615706 305.64990563 528.12747216 308.78515625 533.5703125 C314.89129035 544.16757247 321.01490158 554.75379394 327.1875 565.3125 C331.97029584 573.49524272 336.70553403 581.70312123 341.39794922 589.93798828 C347.24871775 600.20232571 353.16297625 610.42992589 359.07226562 620.66064453 C360.98229429 623.96932895 362.8899836 627.27935039 364.796875 630.58984375 C370.81491593 641.03529862 376.85052556 651.46954647 382.9375 661.875 C388.35958699 671.14563931 393.70324012 680.45936699 399.02023315 689.79046631 C403.63484029 697.88707843 408.29084886 705.95788801 413 714 C418.05630923 722.63497557 423.04607122 731.30606319 428 740 C433.53985933 749.72124506 439.13374932 759.40894868 444.78344727 769.06689453 C450.93766742 779.59084625 457.02369996 790.15380137 463.10888672 800.71777344 C466.23680148 806.14659942 469.36858448 811.57319281 472.5 817 C473.75001879 819.16665583 475.00001878 821.3333225 476.25 823.5 C476.86875 824.5725 477.4875 825.645 478.125 826.75 C513.74999999 888.49999998 513.74999999 888.49999998 515.62524414 891.75048828 C516.87435518 893.91557071 518.12354129 896.08060982 519.37280273 898.24560547 C522.51202309 903.68615706 525.64990563 909.12747216 528.78515625 914.5703125 C534.8074735 925.02206236 540.84674164 935.46296702 546.9375 945.875 C552.77348162 955.85427953 558.5207466 965.88270208 564.24755859 975.92480469 C568.85796329 984.00847264 573.50064974 992.07245311 578.171875 1000.12109375 C580.92163845 1004.85998465 583.6568765 1009.60719242 586.39208984 1014.35449219 C591.8792719 1023.87788521 597.38735411 1033.38815952 602.9375 1042.875 C607.98842974 1051.51279077 612.9802438 1060.18319687 617.9375 1068.875 C627.85201288 1086.25801794 637.83464948 1103.60062923 647.9375 1120.875 C653.77337713 1130.85434159 659.52074593 1140.88270091 665.24755859 1150.92480469 C669.85276262 1158.99935402 674.49000859 1167.05435346 679.15625 1175.09375 C681.97991258 1179.95988896 684.78738792 1184.83530129 687.59545898 1189.71044922 C692.3662178 1197.99192281 697.1378265 1206.27178537 702 1214.5 C711.49300776 1230.5735011 720.74612836 1246.78799799 730 1263 C740.48812527 1281.37425173 751.05989873 1299.69893922 761.7331543 1317.96630859 C767.90110308 1328.52929962 774.00799011 1339.12727355 780.11328125 1349.7265625 C781.9796838 1352.9647516 783.84873763 1356.20139438 785.71875 1359.4375 C791.85509454 1370.05877862 797.97162963 1380.69072963 804.04815674 1391.34631348 C809.90612835 1401.61847237 815.81289848 1411.86029113 821.78369141 1422.06738281 C827.93792989 1432.59111319 834.02379087 1443.1539592 840.10888672 1453.71777344 C843.23680148 1459.14659942 846.36858448 1464.57319281 849.5 1470 C850.75001879 1472.16665583 852.00001878 1474.3333225 853.25 1476.5 C853.86875 1477.5725 854.4875 1478.645 855.125 1479.75 C875.75000002 1515.50000003 875.75000002 1515.50000003 877.62524414 1518.75048828 C878.87435518 1520.91557071 880.12354129 1523.08060982 881.37280273 1525.24560547 C884.51202309 1530.68615706 887.64990563 1536.12747216 890.78515625 1541.5703125 C896.80747329 1552.02206199 902.84669337 1562.46299548 908.9375 1572.875 C914.35958699 1582.14563931 919.70324012 1591.45936699 925.02023315 1600.79046631 C929.63484077 1608.88707929 934.29093425 1616.95783749 939 1625 C944.03189893 1633.59517466 949.00374921 1642.22320217 953.9375 1650.875 C964.44215773 1669.29341535 975.03639593 1687.65871398 985.7331543 1705.96630859 C991.90110308 1716.52929962 998.00799011 1727.12727355 1004.11328125 1737.7265625 C1005.9796838 1740.9647516 1007.84873763 1744.20139438 1009.71875 1747.4375 C1015.85509454 1758.05877862 1021.97162963 1768.69072963 1028.04815674 1779.34631348 C1033.90612835 1789.61847237 1039.81289848 1799.86029113 1045.78369141 1810.06738281 C1051.93792989 1820.59111319 1058.02379087 1831.1539592 1064.10888672 1841.71777344 C1067.23680148 1847.14659942 1070.36858448 1852.57319281 1073.5 1858 C1074.75001879 1860.16665583 1076.00001878 1862.3333225 1077.25 1864.5 C1077.86875 1865.5725 1078.4875 1866.645 1079.125 1867.75 C1099.75 1903.49999999 1099.75 1903.49999999 1101.62524414 1906.75048828 C1102.87435518 1908.91557071 1104.12354129 1911.08060982 1105.37280273 1913.24560547 C1108.51202309 1918.68615706 1111.64990563 1924.12747216 1114.78515625 1929.5703125 C1121.56402991 1941.33516973 1128.37208083 1953.08205859 1135.22290039 1964.80517578 C1138.80020809 1970.9305558 1142.33721527 1977.07603532 1145.84375 1983.2421875 C1148.69116911 1988.22517093 1151.60194101 1993.1713735 1154.5 1998.125 C1159.69665344 2007.01288532 1164.83758912 2015.93133524 1169.9375 2024.875 C1176.96601142 2037.20026542 1184.04240442 2049.49722081 1191.14111328 2061.78222656 C1194.26324605 2067.18670645 1197.38141204 2072.59347412 1200.5 2078 C1201.74998122 2080.1666775 1202.99998121 2082.33334417 1204.25 2084.5 C1211.74999998 2097.49999997 1211.74999998 2097.49999997 1213.62524414 2100.75048828 C1214.87435518 2102.91557071 1216.12354129 2105.08060982 1217.37280273 2107.24560547 C1220.51202309 2112.68615706 1223.64990563 2118.12747216 1226.78515625 2123.5703125 C1232.80747329 2134.02206199 1238.84669337 2144.46299548 1244.9375 2154.875 C1250.35958699 2164.14563931 1255.70324012 2173.45936699 1261.02023315 2182.79046631 C1265.63484029 2190.88707843 1270.29084886 2198.95788801 1275 2207 C1280.4035646 2216.22800529 1285.72652361 2225.4999467 1291.02050781 2234.79101562 C1295.63502804 2242.88744133 1300.29095255 2250.95806509 1305 2259 C1310.05630923 2267.63497557 1315.04607122 2276.30606319 1320 2285 C1325.53985933 2294.72124506 1331.13374932 2304.40894868 1336.78344727 2314.06689453 C1342.93766742 2324.59084625 1349.02369996 2335.15380137 1355.10888672 2345.71777344 C1358.23680148 2351.14659942 1361.36858448 2356.57319281 1364.5 2362 C1365.75001879 2364.16665583 1367.00001878 2366.3333225 1368.25 2368.5 C1368.86875 2369.5725 1369.4875 2370.645 1370.125 2371.75 C1390.74999999 2407.49999999 1390.74999999 2407.49999999 1392.62524414 2410.75048828 C1393.87435518 2412.91557071 1395.12354129 2415.08060982 1396.37280273 2417.24560547 C1399.51202309 2422.68615706 1402.64990563 2428.12747216 1405.78515625 2433.5703125 C1411.80747375 2444.02206279 1417.84680257 2454.46293115 1423.9375 2464.875 C1428.98838019 2473.51282001 1433.98024353 2482.1831964 1438.9375 2490.875 C1449.41285893 2509.24134381 1459.97648473 2527.55500736 1470.65185547 2545.8059082 C1475.58744567 2554.25947819 1480.44333049 2562.75730951 1485.2897644 2571.262146 C1489.14956738 2578.03420754 1493.02490001 2584.79478635 1497 2591.5 C1501.57885281 2599.22556225 1506.04217147 2607.01674128 1510.5 2614.8125 C1510.85787598 2615.43753418 1511.21575195 2616.06256836 1511.58447266 2616.70654297 C1512.60965375 2618.49765854 1513.63323473 2620.28967794 1514.65625 2622.08203125 C1515.25244141 2623.12593018 1515.84863281 2624.1698291 1516.46289062 2625.24536133 C1517.70134349 2627.46478059 1518.86337452 2629.72674905 1520 2632 C517.13 2632 -485.74 2632 -1519 2632 C-1517.45460244 2628.13650609 -1515.88793449 2624.87579302 -1513.83203125 2621.30078125 C-1513.19386475 2620.18751465 -1512.55569824 2619.07424805 -1511.89819336 2617.92724609 C-1511.20304466 2616.72228318 -1510.5078113 2615.5173691 -1509.8125 2614.3125 C-1509.09031382 2613.05565201 -1508.3683941 2611.79865088 -1507.64672852 2610.54150391 C-1505.79256933 2607.31362852 -1503.93436047 2604.08810651 -1502.07458496 2600.86346436 C-1500.42607817 2598.00474796 -1498.77968312 2595.14481546 -1497.1328125 2592.28515625 C-1494.04520824 2586.92721891 -1490.95279067 2581.57207499 -1487.85888672 2576.21777344 C-1484.73675395 2570.81329355 -1481.61858796 2565.40652588 -1478.5 2560 C-1477.25001878 2557.8333225 -1476.00001879 2555.66665583 -1474.75 2553.5 C-1474.13125 2552.4275 -1473.5125 2551.355 -1472.875 2550.25 C-1470.0625 2545.375 -1470.0625 2545.375 -1467.25 2540.5 C-1466.63116943 2539.42733887 -1466.01233887 2538.35467773 -1465.37475586 2537.24951172 C-1464.12564482 2535.08442929 -1462.87645871 2532.91939018 -1461.62719727 2530.75439453 C-1458.48797691 2525.31384294 -1455.35009437 2519.87252784 -1452.21484375 2514.4296875 C-1445.53026093 2502.8285237 -1438.81588714 2491.24583375 -1432.05834961 2479.68701172 C-1427.83623032 2472.45608757 -1423.67205814 2465.19373653 -1419.52954102 2457.91699219 C-1415.81299675 2451.39819926 -1412.04037891 2444.91359365 -1408.25 2438.4375 C-1403.13574897 2429.69595454 -1398.07940494 2420.92268839 -1393.0625 2412.125 C-1383.14828862 2394.74181178 -1373.1652482 2377.39942567 -1363.0625 2360.125 C-1357.32256807 2350.30855493 -1351.6667672 2340.44534606 -1346.03369141 2330.56738281 C-1339.68237863 2319.43131115 -1333.27749144 2308.32652203 -1326.86328125 2297.2265625 C-1324.9796495 2293.96475993 -1323.09877679 2290.70138156 -1321.21875 2287.4375 C-1314.60090832 2275.95040905 -1307.95512768 2264.48054255 -1301.26708984 2253.03417969 C-1295.10080946 2242.47379718 -1288.9950405 2231.87873234 -1282.89111328 2221.28222656 C-1279.76319852 2215.85340058 -1276.63141552 2210.42680719 -1273.5 2205 C-1272.24998121 2202.83334417 -1270.99998122 2200.6666775 -1269.75 2198.5 C-1237.25 2142.16666667 -1204.75 2085.83333333 -1172.25 2029.5 C-1171.63116943 2028.42733887 -1171.01233887 2027.35467773 -1170.37475586 2026.24951172 C-1169.12564482 2024.08442929 -1167.87645871 2021.91939018 -1166.62719727 2019.75439453 C-1163.48797691 2014.31384294 -1160.35009437 2008.87252784 -1157.21484375 2003.4296875 C-1150.53026093 1991.8285237 -1143.81588714 1980.24583375 -1137.05834961 1968.68701172 C-1132.83623032 1961.45608757 -1128.67205814 1954.19373653 -1124.52954102 1946.91699219 C-1120.81299723 1940.3982001 -1117.04044614 1933.91355372 -1113.25 1927.4375 C-1108.11136685 1918.6561469 -1103.03687633 1909.83993873 -1098 1901 C-1092.48737448 1891.32518048 -1086.91575426 1881.6871785 -1081.2890625 1872.078125 C-1076.80833735 1864.41426026 -1072.39505776 1856.71314165 -1068 1849 C-1062.4593297 1839.27733187 -1056.86396578 1829.58860003 -1051.21435547 1819.92871094 C-1041.34368846 1803.04665925 -1031.61229626 1786.08495049 -1021.92391968 1769.09783936 C-1016.74014875 1760.01204122 -1011.49805979 1750.96178959 -1006.21630859 1741.93261719 C-1000.06207011 1731.40888681 -993.97620913 1720.8460408 -987.89111328 1710.28222656 C-984.76319852 1704.85340058 -981.63141552 1699.42680719 -978.5 1694 C-977.24998121 1691.83334417 -975.99998122 1689.6666775 -974.75 1687.5 C-952.25 1648.5 -929.75 1609.5 -907.25 1570.5 C-906.63116943 1569.42733887 -906.01233887 1568.35467773 -905.37475586 1567.24951172 C-904.12564482 1565.08442929 -902.87645871 1562.91939018 -901.62719727 1560.75439453 C-898.48797691 1555.31384294 -895.35009437 1549.87252784 -892.21484375 1544.4296875 C-886.19252671 1533.97793801 -880.15330663 1523.53700452 -874.0625 1513.125 C-868.98724877 1504.44737759 -863.97741233 1495.73394432 -859 1487 C-853.4599827 1477.27884383 -847.86625191 1467.59105342 -842.21655273 1457.93310547 C-836.06233258 1447.40915375 -829.97630004 1436.84619863 -823.89111328 1426.28222656 C-820.76319849 1420.85340054 -817.63136837 1415.42683444 -814.5 1410 C-813.88060547 1408.92621094 -813.26121094 1407.85242187 -812.62304688 1406.74609375 C-809.51221667 1401.35312484 -806.40004851 1395.96093636 -803.28515625 1390.5703125 C-796.46497363 1378.76370516 -789.6767674 1366.93973 -782.92263794 1355.09527588 C-777.76664555 1346.05670572 -772.54679327 1337.05722862 -767.28881836 1328.07763672 C-762.80810487 1320.41397544 -758.39496772 1312.71298363 -754 1305 C-748.46014067 1295.27875494 -742.86625068 1285.59105132 -737.21655273 1275.93310547 C-731.06233258 1265.40915375 -724.97630004 1254.84619863 -718.89111328 1244.28222656 C-715.76319852 1238.85340058 -712.63141552 1233.42680719 -709.5 1228 C-708.24998121 1225.83334417 -706.99998122 1223.6666775 -705.75 1221.5 C-703.25 1217.16666667 -700.75 1212.83333333 -698.25 1208.5 C-697.63116943 1207.42733887 -697.01233887 1206.35467773 -696.37475586 1205.24951172 C-695.12564482 1203.08442929 -693.87645871 1200.91939018 -692.62719727 1198.75439453 C-689.48797691 1193.31384294 -686.35009437 1187.87252784 -683.21484375 1182.4296875 C-677.19252671 1171.97793801 -671.15330663 1161.53700452 -665.0625 1151.125 C-659.98724877 1142.44737759 -654.97741233 1133.73394432 -650 1125 C-644.46209671 1115.28255332 -638.87028188 1105.59858964 -633.22314453 1095.9440918 C-624.39500123 1080.84648745 -615.66762146 1065.6902846 -607 1050.5 C-597.1810238 1033.29192929 -587.26284985 1016.14175979 -577.26782227 999.03540039 C-571.10125075 988.47463848 -564.99527725 977.87914334 -558.89111328 967.28222656 C-555.76319852 961.85340058 -552.63141552 956.42680719 -549.5 951 C-548.24998121 948.83334417 -546.99998122 946.6666775 -545.75 944.5 C-538.25 931.50000001 -538.25 931.50000001 -536.37426758 928.2487793 C-535.1266526 926.08621417 -533.87909384 923.92361661 -532.6315918 921.76098633 C-529.47056551 916.28129629 -526.30850691 910.80220642 -523.14453125 905.32421875 C-517.38691778 895.35352117 -511.63778107 885.37860259 -505.9375 875.375 C-501.15243103 866.98067687 -496.29586808 858.62960353 -491.41943359 850.28808594 C-485.2001045 839.64434755 -479.04432083 828.96428369 -472.89111328 818.28222656 C-469.76319852 812.85340058 -466.63141552 807.42680719 -463.5 802 C-462.24998121 799.83334417 -460.99998122 797.6666775 -459.75 795.5 C-418.5 724 -418.5 724 -377.25 652.5 C-376.63116943 651.42733887 -376.01233887 650.35467773 -375.37475586 649.24951172 C-374.12564482 647.08442929 -372.87645871 644.91939018 -371.62719727 642.75439453 C-368.48797691 637.31384294 -365.35009437 631.87252784 -362.21484375 626.4296875 C-356.19252671 615.97793801 -350.15330663 605.53700452 -344.0625 595.125 C-338.64041301 585.85436069 -333.29675988 576.54063301 -327.97976685 567.20953369 C-323.36515949 559.11292118 -318.70911513 551.04213337 -314 543 C-308.88272399 534.26009427 -303.82948405 525.48520901 -298.8125 516.6875 C-293.51578396 507.39952937 -288.19515905 498.12644322 -282.828125 488.87890625 C-280.07827035 484.13985819 -277.34292939 479.3925002 -274.60766602 474.64501953 C-269.09732756 465.08162221 -263.56864671 455.52957251 -258 446 C-248.5594781 429.84143868 -239.20414319 413.63390182 -229.9375 397.375 C-225.1523459 388.98072465 -220.29586873 380.62960465 -215.41943359 372.28808594 C-209.2001045 361.64434755 -203.04432083 350.96428369 -196.89111328 340.28222656 C-193.7631985 334.85340055 -190.63138034 329.42682751 -187.5 324 C-186.25390161 321.83984643 -185.00780786 319.67969017 -183.76171875 317.51953125 C-181.22384007 313.12040925 -178.68463417 308.72205679 -176.14453125 304.32421875 C-170.38691778 294.35352117 -164.63778107 284.37860259 -158.9375 274.375 C-154.73078092 266.99526116 -150.47393689 259.64620926 -146.1875 252.3125 C-135.66051165 234.30149221 -125.25926997 216.21932158 -114.92391968 198.09783936 C-109.74014875 189.01204122 -104.49805979 179.96178959 -99.21630859 170.93261719 C-93.06207011 160.40888681 -86.97620913 149.8460408 -80.89111328 139.28222656 C-77.76319852 133.85340058 -74.63141552 128.42680719 -71.5 123 C-70.24998121 120.83334417 -68.99998122 118.6666775 -67.75 116.5 C-55.25 94.83333333 -42.75 73.16666667 -30.25 51.5 C-29.63036377 50.42588867 -29.01072754 49.35177734 -28.37231445 48.24511719 C-27.13152967 46.09457457 -25.89048465 43.94418208 -24.64916992 41.79394531 C-21.72980526 36.73622187 -18.81303791 31.67705507 -15.90567017 26.61242676 C-14.53825234 24.23076498 -13.16932961 21.8499698 -11.80029297 19.46923828 C-10.83935447 17.79673979 -9.88058328 16.12299664 -8.921875 14.44921875 C-6.08870892 9.52386849 -3.2430177 4.66737039 0 0 Z M0 601 C-5.64326463 609.48757467 -10.60641295 618.44935279 -15.625 627.3125 C-17.03219835 629.78870445 -18.44154656 632.2636803 -19.8515625 634.73828125 C-20.20244934 635.35430206 -20.55333618 635.97032288 -20.91485596 636.60501099 C-24.23551853 642.42740393 -27.61163061 648.21677362 -31 654 C-36.05654581 662.63483551 -41.04607261 671.30606563 -46 680 C-51.53985933 689.72124506 -57.13374932 699.40894868 -62.78344727 709.06689453 C-68.93766742 719.59084625 -75.02369996 730.15380137 -81.10888672 740.71777344 C-84.23680148 746.14659942 -87.36858448 751.57319281 -90.5 757 C-91.75001879 759.16665583 -93.00001878 761.3333225 -94.25 763.5 C-131.75 828.5 -169.25 893.5 -206.75 958.5 C-207.36883057 959.57266113 -207.98766113 960.64532227 -208.62524414 961.75048828 C-209.87435518 963.91557071 -211.12354129 966.08060982 -212.37280273 968.24560547 C-215.51202309 973.68615706 -218.64990563 979.12747216 -221.78515625 984.5703125 C-227.80747329 995.02206199 -233.84669337 1005.46299548 -239.9375 1015.875 C-245.01275123 1024.55262241 -250.02258767 1033.26605568 -255 1042 C-260.5400173 1051.72115617 -266.13374809 1061.40894658 -271.78344727 1071.06689453 C-277.93766742 1081.59084625 -284.02369996 1092.15380137 -290.10888672 1102.71777344 C-293.23680148 1108.14659942 -296.36858448 1113.57319281 -299.5 1119 C-300.75001879 1121.16665583 -302.00001878 1123.3333225 -303.25 1125.5 C-340.75 1190.5 -378.25 1255.5 -415.75 1320.5 C-416.36883057 1321.57266113 -416.98766113 1322.64532227 -417.62524414 1323.75048828 C-418.87435518 1325.91557071 -420.12354129 1328.08060982 -421.37280273 1330.24560547 C-424.51202309 1335.68615706 -427.64990563 1341.12747216 -430.78515625 1346.5703125 C-436.80747329 1357.02206199 -442.84669337 1367.46299548 -448.9375 1377.875 C-454.01275123 1386.55262241 -459.02258767 1395.26605568 -464 1404 C-469.5400173 1413.72115617 -475.13374809 1423.40894658 -480.78344727 1433.06689453 C-486.93766742 1443.59084625 -493.02369996 1454.15380137 -499.10888672 1464.71777344 C-502.23680148 1470.14659942 -505.36858448 1475.57319281 -508.5 1481 C-509.75001879 1483.16665583 -511.00001878 1485.3333225 -512.25 1487.5 C-549.75 1552.5 -587.25 1617.5 -624.75 1682.5 C-625.36883057 1683.57266113 -625.98766113 1684.64532227 -626.62524414 1685.75048828 C-627.87435518 1687.91557071 -629.12354129 1690.08060982 -630.37280273 1692.24560547 C-633.51202309 1697.68615706 -636.64990563 1703.12747216 -639.78515625 1708.5703125 C-645.80747329 1719.02206199 -651.84669337 1729.46299548 -657.9375 1739.875 C-663.01275123 1748.55262241 -668.02258767 1757.26605568 -673 1766 C-678.5400173 1775.72115617 -684.13374809 1785.40894658 -689.78344727 1795.06689453 C-695.93766742 1805.59084625 -702.02369996 1816.15380137 -708.10888672 1826.71777344 C-711.23680148 1832.14659942 -714.36858448 1837.57319281 -717.5 1843 C-718.75001879 1845.16665583 -720.00001878 1847.3333225 -721.25 1849.5 C-758.75 1914.5 -796.25 1979.5 -833.75 2044.5 C-834.36883057 2045.57266113 -834.98766113 2046.64532227 -835.62524414 2047.75048828 C-836.87435518 2049.91557071 -838.12354129 2052.08060982 -839.37280273 2054.24560547 C-842.51202309 2059.68615706 -845.64990563 2065.12747216 -848.78515625 2070.5703125 C-854.80747329 2081.02206199 -860.84669337 2091.46299548 -866.9375 2101.875 C-872.35511137 2111.13798694 -877.69411421 2120.44415029 -883.00714111 2129.76730347 C-900.24379009 2160.00616454 -900.24379009 2160.00616454 -905.67456055 2168.67211914 C-907.16493123 2170.84320817 -907.16493123 2170.84320817 -907 2173 C-308.05 2173 290.9 2173 908 2173 C899.49902788 2157.41488444 890.94649458 2141.85331806 881.88842773 2126.58325195 C878.14652161 2120.2716483 874.47567329 2113.92007734 870.8125 2107.5625 C870.17449463 2106.45527588 869.53648926 2105.34805176 868.87915039 2104.20727539 C867.57110523 2101.93662932 866.26324552 2099.66587642 864.95556641 2097.39501953 C861.80667946 2091.9283002 858.65316736 2086.46425113 855.5 2081 C854.2499765 2078.83334689 852.99997653 2076.66668021 851.75 2074.5 C851.13125 2073.4275 850.5125 2072.355 849.875 2071.25 C829.25 2035.50000001 829.25 2035.50000001 827.37475586 2032.24951172 C826.12564482 2030.08442929 824.87645871 2027.91939018 823.62719727 2025.75439453 C820.48797691 2020.31384294 817.35009437 2014.87252784 814.21484375 2009.4296875 C808.19252671 1998.97793801 802.15330663 1988.53700452 796.0625 1978.125 C790.64078822 1968.85500223 785.29795085 1959.54168248 779.98077393 1950.21154785 C774.77954871 1941.0871716 769.51972122 1931.99867226 764.21655273 1922.93310547 C758.06233258 1912.40915375 751.97630004 1901.84619863 745.89111328 1891.28222656 C742.76319852 1885.85340058 739.63141552 1880.42680719 736.5 1875 C735.24998121 1872.83334417 733.99998122 1870.6666775 732.75 1868.5 C732.13125 1867.4275 731.5125 1866.355 730.875 1865.25 C620.25000001 1673.50000001 620.25000001 1673.50000001 618.37475586 1670.24951172 C617.12564482 1668.08442929 615.87645871 1665.91939018 614.62719727 1663.75439453 C611.48797691 1658.31384294 608.35009437 1652.87252784 605.21484375 1647.4296875 C599.19252671 1636.97793801 593.15330663 1626.53700452 587.0625 1616.125 C581.64078822 1606.85500223 576.29795085 1597.54168248 570.98077393 1588.21154785 C565.77954871 1579.0871716 560.51972122 1569.99867226 555.21655273 1560.93310547 C549.06233258 1550.40915375 542.97630004 1539.84619863 536.89111328 1529.28222656 C533.76319852 1523.85340058 530.63141552 1518.42680719 527.5 1513 C526.24998121 1510.83334417 524.99998122 1508.6666775 523.75 1506.5 C523.13125 1505.4275 522.5125 1504.355 521.875 1503.25 C411.25 1311.5 411.25 1311.5 409.37475586 1308.24951172 C408.12564482 1306.08442929 406.87645871 1303.91939018 405.62719727 1301.75439453 C402.48797691 1296.31384294 399.35009437 1290.87252784 396.21484375 1285.4296875 C390.19252671 1274.97793801 384.15330663 1264.53700452 378.0625 1254.125 C372.64078822 1244.85500223 367.29795085 1235.54168248 361.98077393 1226.21154785 C356.77954871 1217.0871716 351.51972122 1207.99867226 346.21655273 1198.93310547 C340.06233258 1188.40915375 333.97630004 1177.84619863 327.89111328 1167.28222656 C324.76319852 1161.85340058 321.63141552 1156.42680719 318.5 1151 C317.24998121 1148.83334417 315.99998122 1146.6666775 314.75 1144.5 C314.13125 1143.4275 313.5125 1142.355 312.875 1141.25 C202.24999999 949.49999998 202.24999999 949.49999998 200.37475586 946.24951172 C199.12564482 944.08442929 197.87645871 941.91939018 196.62719727 939.75439453 C193.48797691 934.31384294 190.35009437 928.87252784 187.21484375 923.4296875 C181.19252671 912.97793801 175.15330663 902.53700452 169.0625 892.125 C163.64078822 882.85500223 158.29795085 873.54168248 152.98077393 864.21154785 C147.77954871 855.0871716 142.51972122 845.99867226 137.21655273 836.93310547 C131.06233258 826.40915375 124.97630004 815.84619863 118.89111328 805.28222656 C115.76319852 799.85340058 112.63141552 794.42680719 109.5 789 C108.24998121 786.83334417 106.99998122 784.6666775 105.75 782.5 C104.821875 780.89125 104.821875 780.89125 103.875 779.25 C38.25000001 665.50000002 38.25000001 665.50000002 36.37402344 662.24829102 C35.12729744 660.08731012 33.88055273 657.92634002 32.63378906 655.76538086 C28.81134003 649.14003566 24.98955681 642.51430706 21.16845703 635.88818359 C19.29303074 632.63709464 17.41606661 629.38689693 15.5390625 626.13671875 C13.23398326 622.14396977 10.93742767 618.14652387 8.6484375 614.14453125 C8.13506836 613.24984131 7.62169922 612.35515137 7.09277344 611.43334961 C6.13728525 609.76792036 5.18465908 608.10084477 4.23535156 606.43188477 C3.18501847 604.60480223 2.09701039 602.79944392 1 601 C0.67 601 0.34 601 0 601 Z " fill="#161422" transform="translate(2139,716)"/>
<path d="M0 0 C2.75746999 3.30538577 5.02895473 6.58942457 7.1015625 10.359375 C7.66866943 11.38345459 8.23577637 12.40753418 8.82006836 13.46264648 C9.71350952 15.08988647 9.71350952 15.08988647 10.625 16.75 C14.65708274 24.02314293 18.69013149 31.28750712 22.9375 38.4375 C27.07341637 45.40755586 31.1412128 52.41501381 35.1875 59.4375 C35.82550537 60.54472412 36.46351074 61.65194824 37.12084961 62.79272461 C38.42889477 65.06337068 39.73675448 67.33412358 41.04443359 69.60498047 C44.19332054 75.0716998 47.34683264 80.53574887 50.5 86 C51.7500235 88.16665311 53.00002347 90.33331979 54.25 92.5 C54.86875 93.5725 55.4875 94.645 56.125 95.75 C106.75 183.50000001 106.75 183.50000001 108.62524414 186.75048828 C109.87435518 188.91557071 111.12354129 191.08060982 112.37280273 193.24560547 C115.51202309 198.68615706 118.64990563 204.12747216 121.78515625 209.5703125 C127.80747329 220.02206199 133.84669337 230.46299548 139.9375 240.875 C145.35921178 250.14499777 150.70204915 259.45831752 156.01922607 268.78845215 C161.22045129 277.9128284 166.48027878 287.00132774 171.78344727 296.06689453 C177.93766742 306.59084625 184.02369996 317.15380137 190.10888672 327.71777344 C193.23680148 333.14659942 196.36858448 338.57319281 199.5 344 C200.75001879 346.16665583 202.00001878 348.3333225 203.25 350.5 C204.178125 352.10875 204.178125 352.10875 205.125 353.75 C315.75 545.5 315.75 545.5 317.62524414 548.75048828 C318.87435518 550.91557071 320.12354129 553.08060982 321.37280273 555.24560547 C324.51202309 560.68615706 327.64990563 566.12747216 330.78515625 571.5703125 C336.80747329 582.02206199 342.84669337 592.46299548 348.9375 602.875 C354.35921178 612.14499777 359.70204915 621.45831752 365.01922607 630.78845215 C370.22045129 639.9128284 375.48027878 649.00132774 380.78344727 658.06689453 C386.93766742 668.59084625 393.02369996 679.15380137 399.10888672 689.71777344 C402.23680148 695.14659942 405.36858448 700.57319281 408.5 706 C409.75001879 708.16665583 411.00001878 710.3333225 412.25 712.5 C412.86875 713.5725 413.4875 714.645 414.125 715.75 C524.75 907.5 524.75 907.5 526.62524414 910.75048828 C527.87435518 912.91557071 529.12354129 915.08060982 530.37280273 917.24560547 C533.51202309 922.68615706 536.64990563 928.12747216 539.78515625 933.5703125 C545.80747329 944.02206199 551.84669337 954.46299548 557.9375 964.875 C563.35921178 974.14499777 568.70204915 983.45831752 574.01922607 992.78845215 C578.65775379 1000.92570259 583.33403248 1009.0395688 588.0625 1017.125 C593.07514999 1025.70103259 598.08166533 1034.28045106 603.0625 1042.875 C603.6819751 1043.9386377 604.3014502 1045.00227539 604.93969727 1046.09814453 C605.52807373 1047.11505371 606.1164502 1048.13196289 606.72265625 1049.1796875 C607.23578369 1050.06382324 607.74891113 1050.94795898 608.27758789 1051.85888672 C610.64326286 1056.17309992 612.7995976 1060.5991952 615 1065 C209.43 1065 -196.14 1065 -614 1065 C-612.53195771 1060.59587313 -611.32284118 1057.52117022 -609.05078125 1053.640625 C-608.45773193 1052.62081543 -607.86468262 1051.60100586 -607.25366211 1050.55029297 C-606.61307861 1049.46119629 -605.97249512 1048.37209961 -605.3125 1047.25 C-604.63817285 1046.0942512 -603.96443682 1044.93815734 -603.29125977 1043.78173828 C-601.89270204 1041.38019452 -600.49161706 1038.98015196 -599.08886719 1036.58105469 C-595.84524109 1031.02768166 -592.64478536 1025.44940689 -589.4375 1019.875 C-584.6733229 1011.60876952 -579.87996351 1003.36027243 -575.0625 995.125 C-569.98724877 986.44737759 -564.97741233 977.73394432 -560 969 C-554.4599827 959.27884383 -548.86625191 949.59105342 -543.21655273 939.93310547 C-537.06233258 929.40915375 -530.97630004 918.84619863 -524.89111328 908.28222656 C-521.76319852 902.85340058 -518.63141552 897.42680719 -515.5 892 C-514.24998121 889.83334417 -512.99998122 887.6666775 -511.75 885.5 C-455.5 788 -455.5 788 -399.25 690.5 C-398.63116943 689.42733887 -398.01233887 688.35467773 -397.37475586 687.24951172 C-396.12564482 685.08442929 -394.87645871 682.91939018 -393.62719727 680.75439453 C-390.48797691 675.31384294 -387.35009437 669.87252784 -384.21484375 664.4296875 C-378.19252671 653.97793801 -372.15330663 643.53700452 -366.0625 633.125 C-360.98724877 624.44737759 -355.97741233 615.73394432 -351 607 C-345.4599827 597.27884383 -339.86625191 587.59105342 -334.21655273 577.93310547 C-328.06233258 567.40915375 -321.97630004 556.84619863 -315.89111328 546.28222656 C-312.76319852 540.85340058 -309.63141552 535.42680719 -306.5 530 C-305.24998121 527.83334417 -303.99998122 525.6666775 -302.75 523.5 C-265.25 458.5 -227.75 393.5 -190.25 328.5 C-189.63116943 327.42733887 -189.01233887 326.35467773 -188.37475586 325.24951172 C-187.12564482 323.08442929 -185.87645871 320.91939018 -184.62719727 318.75439453 C-181.48797691 313.31384294 -178.35009437 307.87252784 -175.21484375 302.4296875 C-169.19252671 291.97793801 -163.15330663 281.53700452 -157.0625 271.125 C-151.98724877 262.44737759 -146.97741233 253.73394432 -142 245 C-136.4599827 235.27884383 -130.86625191 225.59105342 -125.21655273 215.93310547 C-119.06233258 205.40915375 -112.97630004 194.84619863 -106.89111328 184.28222656 C-103.76319852 178.85340058 -100.63141552 173.42680719 -97.5 168 C-96.24998121 165.83334417 -94.99998122 163.6666775 -93.75 161.5 C-76.25 131.16666667 -58.75 100.83333333 -41.25 70.5 C-40.63116943 69.42733887 -40.01233887 68.35467773 -39.37475586 67.24951172 C-38.12564482 65.08442929 -36.87645871 62.91939018 -35.62719727 60.75439453 C-32.48797691 55.31384294 -29.35009437 49.87252784 -26.21484375 44.4296875 C-19.87180209 33.42052845 -13.51507256 22.41943375 -7.125 11.4375 C-6.52357178 10.40157715 -5.92214355 9.3656543 -5.30249023 8.29833984 C-4.47599976 6.88029053 -4.47599976 6.88029053 -3.6328125 5.43359375 C-3.14699707 4.59884521 -2.66118164 3.76409668 -2.16064453 2.90405273 C-1 1 -1 1 0 0 Z " fill="#189DED" transform="translate(2139,1666)"/>
<path d="M0 0 C2.75746999 3.30538577 5.02895473 6.58942457 7.1015625 10.359375 C7.66866943 11.38345459 8.23577637 12.40753418 8.82006836 13.46264648 C9.71350952 15.08988647 9.71350952 15.08988647 10.625 16.75 C14.65708274 24.02314293 18.69013149 31.28750712 22.9375 38.4375 C27.07341637 45.40755586 31.1412128 52.41501381 35.1875 59.4375 C35.82550537 60.54472412 36.46351074 61.65194824 37.12084961 62.79272461 C38.42889477 65.06337068 39.73675448 67.33412358 41.04443359 69.60498047 C44.19332054 75.0716998 47.34683264 80.53574887 50.5 86 C51.7500235 88.16665311 53.00002347 90.33331979 54.25 92.5 C54.86875 93.5725 55.4875 94.645 56.125 95.75 C106.75 183.50000001 106.75 183.50000001 108.62524414 186.75048828 C109.87435518 188.91557071 111.12354129 191.08060982 112.37280273 193.24560547 C115.51202309 198.68615706 118.64990563 204.12747216 121.78515625 209.5703125 C127.80747329 220.02206199 133.84669337 230.46299548 139.9375 240.875 C145.35921178 250.14499777 150.70204915 259.45831752 156.01922607 268.78845215 C161.22045129 277.9128284 166.48027878 287.00132774 171.78344727 296.06689453 C177.93766742 306.59084625 184.02369996 317.15380137 190.10888672 327.71777344 C193.23680148 333.14659942 196.36858448 338.57319281 199.5 344 C200.75001879 346.16665583 202.00001878 348.3333225 203.25 350.5 C204.178125 352.10875 204.178125 352.10875 205.125 353.75 C315.75 545.5 315.75 545.5 317.62524414 548.75048828 C318.87435518 550.91557071 320.12354129 553.08060982 321.37280273 555.24560547 C324.51202309 560.68615706 327.64990563 566.12747216 330.78515625 571.5703125 C336.80747329 582.02206199 342.84669337 592.46299548 348.9375 602.875 C354.35921178 612.14499777 359.70204915 621.45831752 365.01922607 630.78845215 C370.22045129 639.9128284 375.48027878 649.00132774 380.78344727 658.06689453 C386.93766742 668.59084625 393.02369996 679.15380137 399.10888672 689.71777344 C402.23680148 695.14659942 405.36858448 700.57319281 408.5 706 C409.75001879 708.16665583 411.00001878 710.3333225 412.25 712.5 C412.86875 713.5725 413.4875 714.645 414.125 715.75 C524.75 907.5 524.75 907.5 526.62524414 910.75048828 C527.87435518 912.91557071 529.12354129 915.08060982 530.37280273 917.24560547 C533.51202309 922.68615706 536.64990563 928.12747216 539.78515625 933.5703125 C545.80747329 944.02206199 551.84669337 954.46299548 557.9375 964.875 C563.35921178 974.14499777 568.70204915 983.45831752 574.01922607 992.78845215 C578.65775379 1000.92570259 583.33403248 1009.0395688 588.0625 1017.125 C593.07514999 1025.70103259 598.08166533 1034.28045106 603.0625 1042.875 C603.6819751 1043.9386377 604.3014502 1045.00227539 604.93969727 1046.09814453 C605.52807373 1047.11505371 606.1164502 1048.13196289 606.72265625 1049.1796875 C607.23578369 1050.06382324 607.74891113 1050.94795898 608.27758789 1051.85888672 C610.64326286 1056.17309992 612.7995976 1060.5991952 615 1065 C562.86 1065 510.72 1065 457 1065 C454.03 1059.72 451.06 1054.44 448 1049 C446.0237163 1045.72925048 444.03762808 1042.4808121 442 1039.25 C436.85717764 1031.01486718 431.78209715 1022.74063188 426.75 1014.4375 C426.39301025 1013.84868042 426.03602051 1013.25986084 425.66821289 1012.65319824 C423.84142951 1009.64005084 422.01524812 1006.62653937 420.18945312 1003.61279297 C416.9828683 998.32057382 413.7705022 993.03186544 410.55847168 987.74295044 C408.78873487 984.82878314 407.01938749 981.9143794 405.25 979 C404.54166852 977.83333221 403.83333519 976.66666554 403.125 975.5 C313.87499998 828.49999996 313.87499998 828.49999996 312.81257629 826.75012207 C312.10399289 825.58304592 311.39540525 824.41597236 310.68681335 823.24890137 C308.91977124 820.33852084 307.15280216 817.42809603 305.38598633 814.51757812 C302.15335493 809.19255275 298.92011124 803.86790301 295.68426514 798.54483032 C288.48187697 786.6965513 281.2917146 774.84171318 274.17016602 762.94458008 C270.12467349 756.19235609 266.02573539 749.47378655 261.9140625 742.76171875 C258.59819784 737.34794525 255.29921247 731.92393211 252 726.5 C247.7384461 719.49428559 243.46891795 712.49359059 239.1875 705.5 C235.60650561 699.65018529 232.06597869 693.77799862 228.55126953 687.88818359 C225.28184992 682.42956176 221.92313726 677.02779586 218.5625 671.625 C214.6269634 665.29537365 210.75043191 658.94107626 207 652.5 C202.77973462 645.25307094 198.38525161 638.12343132 193.95483398 631.00341797 C189.76806055 624.26564513 185.66529643 617.48163811 181.59692383 610.671875 C177.70199312 604.15667168 173.76458427 597.66817652 169.8125 591.1875 C165.95813868 584.86657674 162.11144889 578.5419006 158.3125 572.1875 C154.26171752 565.41416726 150.14719448 558.6807034 146.02734375 551.94921875 C131.47098136 528.16270035 131.47098136 528.16270035 124.4375 516.375 C120.91893998 510.48023746 117.31046427 504.6435807 113.6875 498.8125 C106.94106919 487.95118992 100.359809 476.99485046 93.81494141 466.01123047 C89.17847747 458.23202456 84.46629527 450.50524611 79.6875 442.8125 C72.94116552 431.95112824 66.35981035 420.99485272 59.81494141 410.01123047 C55.20205726 402.27158748 50.51051877 394.58737942 45.75 386.9375 C40.55336924 378.58331633 35.50842398 370.14863803 30.5222168 361.66748047 C27.15340016 355.94044104 23.73321787 350.25559746 20.23046875 344.609375 C17.08166718 339.52900642 13.98230242 334.4183068 10.875 329.3125 C10.28855713 328.34965088 9.70211426 327.38680176 9.09790039 326.39477539 C7.95638899 324.51898667 6.81661931 322.64213676 5.67871094 320.76416016 C4.53740244 318.88488517 3.38935617 317.00968912 2.23535156 315.13818359 C1.41115723 313.79167725 1.41115723 313.79167725 0.5703125 312.41796875 C0.07547363 311.61512451 -0.41936523 310.81228027 -0.92919922 309.98510742 C-2 308 -2 308 -2 306 C-2.66 306 -3.32 306 -4 306 C-4.27714844 306.73476562 -4.55429688 307.46953125 -4.83984375 308.2265625 C-5.91265753 310.7912015 -7.10750785 313.01219223 -8.5625 315.375 C-9.35720703 316.67630859 -9.35720703 316.67630859 -10.16796875 318.00390625 C-10.77253906 318.99261719 -11.37710938 319.98132812 -12 321 C-13.07960306 322.79729082 -14.15494875 324.59709013 -15.23022461 326.39697266 C-19.09850315 332.86967759 -23.02541005 339.30341431 -26.98828125 345.71875 C-29.08021531 349.13083662 -31.13712253 352.56288713 -33.1875 356 C-36.86882837 362.1682738 -40.64305949 368.27576779 -44.4375 374.375 C-48.86533984 381.49528933 -53.18844744 388.66398654 -57.40869141 395.90893555 C-60.12572635 400.55753533 -62.9362737 405.13591933 -65.8125 409.6875 C-70.42219683 416.98534305 -74.82186187 424.39962938 -79.18286133 431.84838867 C-83.35491361 438.96192586 -87.66080728 445.98737839 -92 453 C-93.28674913 455.08445594 -94.57321106 457.16908919 -95.859375 459.25390625 C-96.81118652 460.79667236 -96.81118652 460.79667236 -97.78222656 462.37060547 C-104.78105731 473.72329941 -111.71174782 485.11379382 -118.546875 496.56591797 C-124.89820227 507.20481799 -131.25686548 517.83778742 -137.76953125 528.37890625 C-146.56384254 542.63203992 -155.20052957 556.98119142 -163.8059082 571.34887695 C-167.5200871 577.54600714 -171.26130554 583.72301542 -175.0625 589.8671875 C-181.45182488 600.19831362 -187.76070008 610.57764764 -194 621 C-199.11354993 629.54171053 -204.29076454 638.04263578 -209.49023438 646.53222656 C-212.37463861 651.24690283 -215.2502563 655.96692888 -218.125 660.6875 C-218.72610596 661.67451904 -219.32721191 662.66153809 -219.9465332 663.6784668 C-223.1730698 668.98151808 -226.3818093 674.29434979 -229.5625 679.625 C-233.08106002 685.51976254 -236.68953573 691.3564193 -240.3125 697.1875 C-246.65179691 707.39335127 -252.84341941 717.68320554 -259 728 C-264.61650192 737.39913599 -270.28778959 746.76266512 -276.00390625 756.1015625 C-286.29270782 772.91422134 -296.50834056 789.77168529 -306.7355957 806.62182617 C-310.30332351 812.49991519 -313.87187628 818.37750317 -317.44052124 824.2550354 C-319.21038263 827.17000226 -320.98018847 830.08500286 -322.75 833 C-323.45833307 834.16666683 -324.1666664 835.33333349 -324.875 836.5 C-325.225625 837.0775 -325.57625 837.655 -325.9375 838.25 C-396.06250028 953.75000046 -396.06250028 953.75000046 -432.18725586 1013.24958801 C-432.89641467 1014.41762088 -433.60556179 1015.58566085 -434.31469727 1016.75370789 C-436.07280547 1019.64952969 -437.8311091 1022.54523244 -439.58984375 1025.44067383 C-442.92946611 1030.93924447 -446.26689482 1036.43911836 -449.59802246 1041.94284058 C-451.18254773 1044.56055627 -452.76811103 1047.17764246 -454.35375977 1049.79467773 C-455.11388462 1051.04989563 -455.87349319 1052.30542633 -456.63256836 1053.5612793 C-457.68084695 1055.29553465 -458.73100022 1057.02865643 -459.78125 1058.76171875 C-460.38001953 1059.75131592 -460.97878906 1060.74091309 -461.59570312 1061.76049805 C-463 1064 -463 1064 -464 1065 C-465.936283 1065.09662973 -467.87614262 1065.12187144 -469.81483459 1065.12025452 C-471.07833237 1065.12162918 -472.34183014 1065.12300385 -473.64361572 1065.12442017 C-475.05676293 1065.12088055 -476.4699099 1065.11724574 -477.88305664 1065.11352539 C-479.36101784 1065.11324353 -480.83897919 1065.11340124 -482.31694031 1065.1139679 C-486.34155828 1065.1142559 -490.36614672 1065.1083587 -494.3907578 1065.10139394 C-498.59216365 1065.09516088 -502.7935701 1065.09455664 -506.99497986 1065.09336853 C-514.95646257 1065.09025507 -522.91793162 1065.08204149 -530.8794083 1065.07201904 C-539.94092589 1065.06085836 -549.00244412 1065.05534757 -558.06396687 1065.05032361 C-576.709319 1065.03985888 -595.35465841 1065.02225916 -614 1065 C-612.67899257 1060.90675245 -611.22609607 1057.35593525 -609.05078125 1053.640625 C-608.45773193 1052.62081543 -607.86468262 1051.60100586 -607.25366211 1050.55029297 C-606.61307861 1049.46119629 -605.97249512 1048.37209961 -605.3125 1047.25 C-604.63817285 1046.0942512 -603.96443682 1044.93815734 -603.29125977 1043.78173828 C-601.89270204 1041.38019452 -600.49161706 1038.98015196 -599.08886719 1036.58105469 C-595.84524109 1031.02768166 -592.64478536 1025.44940689 -589.4375 1019.875 C-584.6733229 1011.60876952 -579.87996351 1003.36027243 -575.0625 995.125 C-569.98724877 986.44737759 -564.97741233 977.73394432 -560 969 C-554.4599827 959.27884383 -548.86625191 949.59105342 -543.21655273 939.93310547 C-537.06233258 929.40915375 -530.97630004 918.84619863 -524.89111328 908.28222656 C-521.76319852 902.85340058 -518.63141552 897.42680719 -515.5 892 C-514.24998121 889.83334417 -512.99998122 887.6666775 -511.75 885.5 C-455.5 788 -455.5 788 -399.25 690.5 C-398.63116943 689.42733887 -398.01233887 688.35467773 -397.37475586 687.24951172 C-396.12564482 685.08442929 -394.87645871 682.91939018 -393.62719727 680.75439453 C-390.48797691 675.31384294 -387.35009437 669.87252784 -384.21484375 664.4296875 C-378.19252671 653.97793801 -372.15330663 643.53700452 -366.0625 633.125 C-360.98724877 624.44737759 -355.97741233 615.73394432 -351 607 C-345.4599827 597.27884383 -339.86625191 587.59105342 -334.21655273 577.93310547 C-328.06233258 567.40915375 -321.97630004 556.84619863 -315.89111328 546.28222656 C-312.76319852 540.85340058 -309.63141552 535.42680719 -306.5 530 C-305.24998121 527.83334417 -303.99998122 525.6666775 -302.75 523.5 C-265.25 458.5 -227.75 393.5 -190.25 328.5 C-189.63116943 327.42733887 -189.01233887 326.35467773 -188.37475586 325.24951172 C-187.12564482 323.08442929 -185.87645871 320.91939018 -184.62719727 318.75439453 C-181.48797691 313.31384294 -178.35009437 307.87252784 -175.21484375 302.4296875 C-169.19252671 291.97793801 -163.15330663 281.53700452 -157.0625 271.125 C-151.98724877 262.44737759 -146.97741233 253.73394432 -142 245 C-136.4599827 235.27884383 -130.86625191 225.59105342 -125.21655273 215.93310547 C-119.06233258 205.40915375 -112.97630004 194.84619863 -106.89111328 184.28222656 C-103.76319852 178.85340058 -100.63141552 173.42680719 -97.5 168 C-96.24998121 165.83334417 -94.99998122 163.6666775 -93.75 161.5 C-76.25 131.16666667 -58.75 100.83333333 -41.25 70.5 C-40.63116943 69.42733887 -40.01233887 68.35467773 -39.37475586 67.24951172 C-38.12564482 65.08442929 -36.87645871 62.91939018 -35.62719727 60.75439453 C-32.48797691 55.31384294 -29.35009437 49.87252784 -26.21484375 44.4296875 C-19.87180209 33.42052845 -13.51507256 22.41943375 -7.125 11.4375 C-6.52357178 10.40157715 -5.92214355 9.3656543 -5.30249023 8.29833984 C-4.47599976 6.88029053 -4.47599976 6.88029053 -3.6328125 5.43359375 C-3.14699707 4.59884521 -2.66118164 3.76409668 -2.16064453 2.90405273 C-1 1 -1 1 0 0 Z " fill="#200D43" transform="translate(2139,1666)"/>
<path d="M0 0 C1408.44 0 2816.88 0 4268 0 C4268 1408.44 4268 2816.88 4268 4268 C2859.56 4268 1451.12 4268 0 4268 C0 2859.56 0 1451.12 0 0 Z M1 1 C1 1408.78 1 2816.56 1 4267 C1408.78 4267 2816.56 4267 4267 4267 C4267 2859.22 4267 1451.44 4267 1 C2859.22 1 1451.44 1 1 1 Z " fill="#9588AD" transform="translate(0,0)"/>
</svg>
